<?xml version="1.0" standalone="no"?>
<!DOCTYPE svg PUBLIC "-//W3C//DTD SVG 20010904//EN"
 "http://www.w3.org/TR/2001/REC-SVG-20010904/DTD/svg10.dtd">
<svg version="1.0" xmlns="http://www.w3.org/2000/svg"
 width="128.000000pt" height="128.000000pt" viewBox="0 0 128.000000 128.000000"
 preserveAspectRatio="xMidYMid meet">
<metadata>
Created by potrace 1.11, written by Peter Selinger 2001-2013
</metadata>
<g transform="translate(0.000000,128.000000) scale(0.100000,-0.100000)"
fill="#000000" stroke="none">
<path d="M1030 1120 c0 -5 -7 -10 -15 -10 -25 0 -65 -46 -65 -75 0 -14 5 -25
10 -25 6 0 10 -4 10 -10 0 -6 -38 -10 -95 -10 -88 0 -95 -1 -95 -20 0 -11 -3
-20 -7 -20 -13 0 -11 -84 1 -92 7 -5 7 -8 1 -8 -6 0 -12 -16 -13 -36 -2 -27 0
-34 10 -28 10 6 9 3 -1 -9 -11 -14 -11 -20 0 -34 8 -10 9 -14 2 -10 -14 9 -13
-49 1 -72 6 -9 5 -12 -2 -7 -13 8 -11 -51 2 -73 6 -9 5 -12 -2 -7 -13 8 -11
-51 2 -73 6 -10 5 -12 -2 -7 -8 5 -12 0 -12 -13 0 -12 6 -21 13 -21 8 0 9 -3
1 -8 -6 -4 -10 -23 -9 -42 2 -58 0 -60 -82 -60 -84 0 -117 -17 -91 -47 12 -15
11 -15 -9 -2 -22 13 -23 21 -23 121 0 65 -4 108 -10 108 -6 0 -10 43 -10 110
0 67 -4 110 -10 110 -6 0 -10 37 -10 90 0 53 -4 90 -10 90 -5 0 -10 9 -10 20
0 18 -7 20 -80 20 -73 0 -80 -2 -80 -20 0 -11 -3 -20 -7 -20 -5 0 -9 -11 -9
-25 -1 -14 2 -22 8 -19 5 3 4 -4 -4 -15 -11 -18 -11 -23 1 -30 11 -7 11 -9 0
-14 -11 -5 -10 -8 4 -17 9 -6 15 -15 12 -21 -4 -5 0 -9 7 -9 9 0 10 -2 2 -8
-13 -8 -13 -120 0 -141 5 -7 9 -31 9 -52 0 -26 3 -36 11 -32 6 4 5 0 -2 -9
-16 -21 -12 -40 13 -56 19 -12 18 -12 -5 -6 l-25 6 24 -21 c13 -11 20 -21 15
-21 -6 0 -10 -9 -11 -20 -1 -13 2 -18 10 -14 8 5 8 3 0 -7 -7 -7 -13 -21 -13
-31 0 -16 -10 -18 -90 -18 l-90 0 0 320 0 320 -90 0 c-83 0 -90 -1 -90 -20 0
-11 -4 -20 -8 -20 -4 0 -9 -11 -10 -25 -1 -14 4 -25 11 -25 7 0 8 -3 2 -8 -16
-11 -18 -44 -3 -53 7 -5 8 -9 3 -9 -15 0 -17 -50 -2 -50 7 0 8 -3 2 -8 -16
-11 -18 -44 -3 -53 7 -5 8 -9 3 -9 -15 0 -17 -50 -2 -50 7 0 8 -3 2 -8 -16
-11 -18 -44 -3 -53 7 -5 8 -9 3 -9 -15 0 -17 -50 -2 -50 7 0 8 -3 2 -8 -16
-11 -18 -44 -3 -53 7 -5 8 -9 3 -9 -15 0 -17 -50 -2 -50 7 0 8 -3 2 -8 -16
-11 -18 -44 -3 -53 7 -5 8 -9 3 -9 -15 0 -17 -50 -2 -50 7 0 8 -3 2 -8 -16
-11 -18 -44 -3 -53 7 -5 8 -9 3 -9 -6 0 -12 -11 -13 -25 -1 -14 3 -25 9 -25 5
0 7 5 3 12 -5 7 -3 8 6 3 10 -6 10 -11 -3 -20 -10 -7 -17 -14 -17 -17 0 -3 77
-5 170 -5 94 0 170 4 170 9 0 4 5 8 11 8 5 0 8 -4 5 -9 -3 -5 6 -8 19 -8 14 0
25 3 25 8 0 5 5 9 11 9 5 0 8 -4 5 -8 -3 -5 26 -8 65 -9 60 0 69 3 69 19 0 24
27 23 35 -1 5 -15 15 -18 70 -17 60 0 65 2 60 21 -5 16 -3 15 10 -5 16 -24 16
-24 12 -2 -4 18 -1 22 21 21 15 0 21 -3 15 -6 -7 -2 -13 -10 -13 -17 0 -9 15
-13 45 -13 24 0 42 4 39 8 -3 5 0 9 5 9 6 0 11 -4 11 -9 0 -5 11 -9 25 -9 13
0 22 4 19 9 -3 5 -1 9 5 9 5 0 12 -6 14 -12 3 -7 6 -3 6 10 1 12 7 22 16 22
13 0 15 22 15 143 l0 142 106 -2 c97 -1 107 1 111 18 3 10 9 19 14 19 5 0 9
32 9 70 l0 70 -120 0 -120 0 0 73 0 72 104 -2 c91 -1 105 1 109 16 2 10 11 18
20 18 9 0 14 -4 11 -9 -3 -5 -10 -6 -15 -3 -5 4 -9 -1 -9 -9 0 -19 11 -20 29
-3 11 9 13 9 7 0 -4 -7 -3 -13 3 -13 5 0 12 8 14 18 4 16 5 16 6 0 0 -10 6
-18 12 -18 6 0 8 7 5 15 -3 9 1 18 9 21 21 8 21 129 1 150 -11 10 -40 14 -105
14 -54 0 -91 4 -91 10 0 6 5 10 10 10 6 0 10 8 10 18 0 10 9 24 20 32 24 17
26 36 6 56 -16 16 -86 19 -86 4z m-45 -300 c-3 -5 -12 -10 -18 -10 -7 0 -6 4
3 10 19 12 23 12 15 0z m45 5 c0 -2 -10 -9 -22 -15 -22 -11 -22 -10 -4 4 21
17 26 19 26 11z m40 0 c0 -2 -10 -9 -22 -15 -22 -11 -22 -10 -4 4 21 17 26 19
26 11z m40 0 c0 -2 -10 -9 -22 -15 -22 -11 -22 -10 -4 4 21 17 26 19 26 11z
m27 -21 c-3 -3 -12 -4 -19 -1 -8 3 -5 6 6 6 11 1 17 -2 13 -5z m-767 -164 c0
-5 -2 -10 -4 -10 -3 0 -8 5 -11 10 -3 6 -1 10 4 10 6 0 11 -4 11 -10z m615
-140 c-3 -5 -12 -10 -18 -10 -7 0 -6 4 3 10 19 12 23 12 15 0z m45 5 c0 -2
-10 -9 -22 -15 -22 -11 -22 -10 -4 4 21 17 26 19 26 11z m40 0 c0 -2 -10 -9
-22 -15 -22 -11 -22 -10 -4 4 21 17 26 19 26 11z m40 0 c0 -2 -10 -9 -22 -15
-22 -11 -22 -10 -4 4 21 17 26 19 26 11z m60 -5 c0 -5 -4 -10 -10 -10 -5 0
-10 5 -10 10 0 6 5 10 10 10 6 0 10 -4 10 -10z m-33 -16 c-3 -3 -12 -4 -19 -1
-8 3 -5 6 6 6 11 1 17 -2 13 -5z m-516 -299 c11 6 11 5 2 -5 -12 -14 -33 -6
-33 13 0 8 3 7 9 -2 5 -8 14 -10 22 -6z m-551 0 c0 -2 -10 -9 -22 -15 -22 -11
-22 -10 -4 4 21 17 26 19 26 11z m40 0 c0 -2 -10 -9 -22 -15 -22 -11 -22 -10
-4 4 21 17 26 19 26 11z m40 0 c0 -2 -10 -9 -22 -15 -22 -11 -22 -10 -4 4 21
17 26 19 26 11z m64 -7 c-3 -4 -9 -8 -15 -8 -5 0 -9 4 -9 8 0 5 7 9 15 9 8 0
12 -4 9 -9z m56 2 c0 -5 -5 -10 -11 -10 -5 0 -7 5 -4 10 3 6 8 10 11 10 2 0 4
-4 4 -10z m64 -2 c-3 -4 -9 -8 -15 -8 -5 0 -9 4 -9 8 0 5 7 9 15 9 8 0 12 -4
9 -9z m56 2 c0 -5 -5 -10 -11 -10 -5 0 -7 5 -4 10 3 6 8 10 11 10 2 0 4 -4 4
-10z m113 -3 c-3 -5 -14 -7 -24 -4 -11 3 -19 0 -19 -6 0 -6 -3 -8 -6 -4 -11
11 4 22 29 22 14 0 23 -4 20 -8z m167 3 c0 -5 -5 -10 -11 -10 -5 0 -7 5 -4 10
3 6 8 10 11 10 2 0 4 -4 4 -10z m160 0 c0 -5 -5 -10 -11 -10 -5 0 -7 5 -4 10
3 6 8 10 11 10 2 0 4 -4 4 -10z m60 0 c0 -5 -4 -10 -10 -10 -5 0 -10 5 -10 10
0 6 5 10 10 10 6 0 10 -4 10 -10z m-350 -4 c0 -2 -7 -7 -16 -10 -8 -3 -12 -2
-9 4 6 10 25 14 25 6z m-363 -12 c-3 -3 -12 -4 -19 -1 -8 3 -5 6 6 6 11 1 17
-2 13 -5z"/>
<path d="M320 785 c0 -8 4 -15 8 -15 5 0 9 7 9 15 0 8 -4 15 -9 15 -4 0 -8 -7
-8 -15z"/>
</g>
</svg>
